<mxfile host="app.diagrams.net" modified="2023-12-08T14:21:16.251Z" agent="Mozilla/5.0 (Windows NT 10.0; Win64; x64) AppleWebKit/537.36 (KHTML, like Gecko) Chrome/119.0.0.0 Safari/537.36" version="22.1.7" etag="hEAKjw-_9QYvWZvJ2k0V" type="github">
  <diagram name="Page-1" id="-Vx-GqwqkWMeNLZ6Vnx8">
    <mxGraphModel>
      <root>
        <mxCell id="0" />
        <mxCell id="1" parent="0" />
      </root>
    </mxGraphModel>
  </diagram>
</mxfile>
